<svg id="Logo" xmlns="http://www.w3.org/2000/svg" xmlns:xlink="http://www.w3.org/1999/xlink" viewBox="0 0 746.48 1201"><defs><style>.cls-1,.cls-3,.cls-5{fill:none;}.cls-2{clip-path:url(#clip-path);}.cls-3{stroke:#000;}.cls-3,.cls-5{stroke-miterlimit:10;}.cls-4{fill:#c8ebff;}.cls-5{stroke:#c8ebff;}</style><clipPath id="clip-path" transform="translate(-454.6 -149.5)"><rect class="cls-1" width="1500" height="1500"/></clipPath></defs><title>CClogo_Tall</title><g id="Glass_Tall"><g class="cls-2"><path d="M500,1350h500L775,1250V650l425-500H550l-9.34.67a21.52,21.52,0,0,0-18.51,13.65L521,167.21a32.58,32.58,0,0,0,0,15.58l1.12,2.89a21.52,21.52,0,0,0,18.51,13.65L550,200h550L750,607,500,313.42l-1.83-1.77c-8.45-9.33-14.57-13.16-25.43-11.92-5.2,1.29-9.06,3.35-13.8,8.8l0,0c-5.32,7.67-5.2,18.53,1.08,27.35L725,650v600Z" transform="translate(-454.6 -149.5)"/><path class="cls-3" d="M500,1350h500L775,1250V650l425-500H550l-9.34.67a21.52,21.52,0,0,0-18.51,13.65L521,167.21a32.58,32.58,0,0,0,0,15.58l1.12,2.89a21.52,21.52,0,0,0,18.51,13.65L550,200h550L750,607,500,313.42l-1.83-1.77c-8.45-9.33-14.57-13.16-25.43-11.92-5.2,1.29-9.06,3.35-13.8,8.8l0,0c-5.32,7.67-5.2,18.53,1.08,27.35L725,650v600Z" transform="translate(-454.6 -149.5)"/></g></g><g id="Liquid"><g class="cls-2"><path class="cls-4" d="M550,320,750,557,950,320a223.58,223.58,0,0,0-200,0,223.58,223.58,0,0,1-200,0" transform="translate(-454.6 -149.5)"/><path class="cls-5" d="M550,320,750,557,950,320a223.58,223.58,0,0,0-200,0A223.58,223.58,0,0,1,550,320Z" transform="translate(-454.6 -149.5)"/></g></g></svg>